<svg width="16" height="8" viewBox="0 0 16 8" version="1.1" xmlns="http://www.w3.org/2000/svg" xmlns:xlink="http://www.w3.org/1999/xlink">
<title>Arrow</title>
<desc>Created using Figma</desc>
<g id="Canvas" transform="translate(207 143)">
<g id="Arrow">
<use xlink:href="#path0_stroke" transform="matrix(1 -2.44929e-16 2.44929e-16 1 -207 -139)"/>
</g>
</g>
<defs>
<path id="path0_stroke" d="M 15.3536 0.353553C 15.5488 0.158291 15.5488 -0.158291 15.3536 -0.353553L 12.1716 -3.53553C 11.9763 -3.7308 11.6597 -3.7308 11.4645 -3.53553C 11.2692 -3.34027 11.2692 -3.02369 11.4645 -2.82843L 14.2929 0L 11.4645 2.82843C 11.2692 3.02369 11.2692 3.34027 11.4645 3.53553C 11.6597 3.7308 11.9763 3.7308 12.1716 3.53553L 15.3536 0.353553ZM 0 0.5L 15 0.5L 15 -0.5L 0 -0.5L 0 0.5Z"/>
</defs>
</svg>
