<?xml version="1.0" encoding="iso-8859-1"?>
<!-- Generator: Adobe Illustrator 18.0.0, SVG Export Plug-In . SVG Version: 6.00 Build 0)  -->
<!DOCTYPE svg PUBLIC "-//W3C//DTD SVG 1.1//EN" "http://www.w3.org/Graphics/SVG/1.1/DTD/svg11.dtd">
<svg version="1.1" id="Capa_1" xmlns="http://www.w3.org/2000/svg" xmlns:xlink="http://www.w3.org/1999/xlink" x="0px" y="0px"
	 viewBox="0 0 404.487 404.487" style="enable-background:new 0 0 404.487 404.487;" xml:space="preserve">
<path d="M396.874,160.596c-10.683-59.194-30.177-107.896-40.847-131.659c-5.604-12.479-18.098-20.417-31.762-20.189L207.76,10.576
	c-12.585,0.198-24.361,7.064-30.731,17.921c-7.206,12.28-6.543,27.723,1.687,39.341l26.625,37.589
	c9.316,13.15,26.234,18.07,41.151,11.961l37.69-15.436c1.714,10.526-0.115,20.756-5.489,30.483
	c-13.42,24.29-20.512,50.669-20.767,76.826c-8.643-6.027-17.52-10.99-26.6-14.852c-19.362-8.236-39.631-11.521-60.233-9.764
	c-4.511,0.385-8.829,0.995-12.937,1.763c-21.709-56.849-61.684-74.222-91.821-78.69c-33.231-4.927-61.095,4.345-62.265,4.742
	c-3.135,1.064-4.813,4.466-3.752,7.602c1.062,3.137,4.464,4.821,7.603,3.764c0.263-0.088,26.642-8.801,57.071-4.175
	c38.197,5.807,65.536,29.194,81.36,69.524c-20.994,5.92-34.15,15.058-34.882,15.574c-2.708,1.911-3.354,5.654-1.443,8.362
	c1.91,2.708,5.654,3.354,8.362,1.443c0.215-0.152,21.921-15.241,53.725-17.952c18.634-1.59,36.977,1.389,54.517,8.85
	c22.167,9.429,43.187,26.103,62.479,49.559c1.186,1.443,2.904,2.189,4.637,2.189c1.342,0,2.691-0.447,3.809-1.366
	c2.559-2.105,2.928-5.886,0.822-8.445c-9.042-10.995-18.478-20.601-28.253-28.784l-0.046-0.904
	c-1.379-26.85,5.233-54.327,19.121-79.462c7.192-13.018,9.301-26.768,6.324-40.93l18.401-7.536c3.066-1.256,4.534-4.76,3.278-7.826
	c-1.256-3.067-4.762-4.533-7.827-3.278l-67.43,27.616c-9.716,3.981-20.74,0.774-26.81-7.793l-26.625-37.589
	c-5.508-7.776-5.952-18.112-1.129-26.332c4.264-7.267,12.146-11.863,20.569-11.995l116.506-1.828
	c8.906-0.133,16.987,5.004,20.626,13.106c10.445,23.262,29.529,70.938,39.984,128.875c12.488,69.198,9.204,132.075-9.759,186.945
	c-63.467,25.415-117.936,36.424-166.437,33.655c-32.951-1.883-63.311-10.305-90.235-25.034
	c-30.249-16.546-57.03-41.549-79.66-74.296c12.837-4.378,25.818-3.637,26.049-3.621c3.306,0.221,6.16-2.275,6.386-5.578
	c0.226-3.306-2.271-6.169-5.577-6.395c-0.501-0.034-12.461-0.801-25.882,2.73c-18.605,4.895-31.025,15.652-35.919,31.107
	c-1,3.159,0.75,6.531,3.909,7.531c0.603,0.191,1.212,0.281,1.813,0.281c2.546,0,4.909-1.634,5.719-4.19
	c2.372-7.491,7.032-12.796,12.581-16.551c45.092,66.075,105.688,101.742,180.132,105.995c5.095,0.291,10.242,0.437,15.459,0.437
	c46.969-0.001,99.074-11.826,158.677-35.959c1.588-0.643,2.826-1.935,3.4-3.549C406.178,298.772,409.931,232.949,396.874,160.596z"
	/>
<g>
</g>
<g>
</g>
<g>
</g>
<g>
</g>
<g>
</g>
<g>
</g>
<g>
</g>
<g>
</g>
<g>
</g>
<g>
</g>
<g>
</g>
<g>
</g>
<g>
</g>
<g>
</g>
<g>
</g>
</svg>
